<?xml version="1.0" standalone="no"?><!DOCTYPE svg PUBLIC "-//W3C//DTD SVG 1.1//EN" "http://www.w3.org/Graphics/SVG/1.1/DTD/svg11.dtd"><svg t="1665456951575" class="icon" viewBox="0 0 1024 1024" version="1.1" xmlns="http://www.w3.org/2000/svg" p-id="2676" xmlns:xlink="http://www.w3.org/1999/xlink" width="200" height="200"><path d="M724.79827 417.349189c-24.243892 0-43.865946-20.203243-43.865946-45.139027 0-145.518703-77.325838-268.454054-168.821621-268.454054-91.495784 0-168.821622 122.935351-168.821622 268.454054 0 24.908108-19.622054 45.111351-43.83827 45.111352-24.216216 0-43.865946-20.203243-43.865946-45.111352 0-201.119135 112.667676-358.676757 256.525838-358.676757 141.450378 0 256.553514 160.906378 256.553513 358.676757 0 24.908108-19.64973 45.111351-43.865946 45.111352zM682.205405 1007.948108H341.988324c-208.093405 0-327.430919-96.172973-327.430919-263.887567a47.048649 47.048649 0 0 1 0.138379-3.597838l28.339892-363.52c1.826595-23.441297 20.867459-41.513514 43.727567-41.513514h850.694919c22.860108 0 41.873297 18.072216 43.727568 41.513514l28.339892 363.52c0.110703 1.190054 0.138378 2.407784 0.138378 3.597838 0 167.714595-119.337514 263.887568-327.403243 263.887567zM102.289297 745.859459c0.802595 114.079135 81.421838 171.921297 239.671352 171.921298h340.272432c158.277189 0 238.896432-57.842162 239.726703-171.921298l-24.991135-320.12454H127.252757l-24.96346 320.12454z" p-id="2677"></path></svg>